<svg width="19" height="12" viewBox="0 0 19 12" fill="none" xmlns="http://www.w3.org/2000/svg">
<path d="M13.1204 4.90909C14.4786 4.90909 15.5667 3.81273 15.5667 2.45455C15.5667 1.09636 14.4786 0 13.1204 0C11.7622 0 10.6658 1.09636 10.6658 2.45455C10.6658 3.81273 11.7622 4.90909 13.1204 4.90909ZM6.57493 4.90909C7.93311 4.90909 9.02129 3.81273 9.02129 2.45455C9.02129 1.09636 7.93311 0 6.57493 0C5.21675 0 4.12038 1.09636 4.12038 2.45455C4.12038 3.81273 5.21675 4.90909 6.57493 4.90909ZM6.57493 6.54546C4.66857 6.54546 0.847656 7.50273 0.847656 9.40909V10.6364C0.847656 11.0864 1.21584 11.4545 1.66584 11.4545H11.484C11.934 11.4545 12.3022 11.0864 12.3022 10.6364V9.40909C12.3022 7.50273 8.48129 6.54546 6.57493 6.54546ZM13.1204 6.54546C12.8831 6.54546 12.6131 6.56182 12.3267 6.58636C12.3431 6.59455 12.3513 6.61091 12.3595 6.61909C13.2922 7.29818 13.9386 8.20636 13.9386 9.40909V10.6364C13.9386 10.9227 13.8813 11.2009 13.7913 11.4545H18.0295C18.4795 11.4545 18.8477 11.0864 18.8477 10.6364V9.40909C18.8477 7.50273 15.0267 6.54546 13.1204 6.54546Z" fill="#FAA900"/>
</svg>
