<svg width="19" height="12" viewBox="0 0 19 12" fill="none" xmlns="http://www.w3.org/2000/svg">
<path d="M14.9667 2.45455C14.9667 3.48397 14.1446 4.30909 13.1204 4.30909C12.0936 4.30909 11.2658 3.48136 11.2658 2.45455C11.2658 1.42773 12.0936 0.6 13.1204 0.6C14.1446 0.6 14.9667 1.42512 14.9667 2.45455ZM8.42129 2.45455C8.42129 3.48397 7.59913 4.30909 6.57493 4.30909C5.54812 4.30909 4.72038 3.48136 4.72038 2.45455C4.72038 1.42773 5.54812 0.6 6.57493 0.6C7.59913 0.6 8.42129 1.42512 8.42129 2.45455ZM1.44766 9.40909C1.44766 9.15298 1.5712 8.88439 1.88123 8.59847C2.19535 8.30877 2.65915 8.04361 3.21932 7.81944C4.34064 7.37072 5.69668 7.14546 6.57493 7.14546C7.45317 7.14546 8.80922 7.37072 9.93054 7.81944C10.4907 8.04361 10.9545 8.30877 11.2686 8.59847C11.5787 8.88439 11.7022 9.15298 11.7022 9.40909V10.6364C11.7022 10.755 11.6026 10.8545 11.484 10.8545H1.66584C1.54721 10.8545 1.44766 10.755 1.44766 10.6364V9.40909ZM13.7927 7.1811C14.6093 7.26075 15.6123 7.47381 16.476 7.81944C17.0362 8.04361 17.5 8.30877 17.8141 8.59847C18.1241 8.88439 18.2477 9.15298 18.2477 9.40909V10.6364C18.2477 10.755 18.1481 10.8545 18.0295 10.8545H14.53C14.5356 10.7827 14.5386 10.7099 14.5386 10.6364V9.40909C14.5386 8.53114 14.2493 7.7934 13.7927 7.1811Z" stroke="#14142B" stroke-width="1.2"/>
</svg>
