<svg width="19" height="9" viewBox="0 0 19 9" fill="none" xmlns="http://www.w3.org/2000/svg">
<path d="M9.84766 5.0625C11.0702 5.0625 12.1502 5.355 13.0277 5.7375C13.8377 6.0975 14.3477 6.9075 14.3477 7.785V8.25C14.3477 8.6625 14.0102 9 13.5977 9H6.09766C5.68516 9 5.34766 8.6625 5.34766 8.25V7.7925C5.34766 6.9075 5.85766 6.0975 6.66766 5.745C7.54516 5.355 8.62516 5.0625 9.84766 5.0625ZM3.84766 5.25C4.67266 5.25 5.34766 4.575 5.34766 3.75C5.34766 2.925 4.67266 2.25 3.84766 2.25C3.02266 2.25 2.34766 2.925 2.34766 3.75C2.34766 4.575 3.02266 5.25 3.84766 5.25ZM4.69516 6.075C4.41766 6.03 4.14016 6 3.84766 6C3.10516 6 2.40016 6.1575 1.76266 6.435C1.20766 6.675 0.847656 7.215 0.847656 7.8225V8.25C0.847656 8.6625 1.18516 9 1.59766 9H4.22266V7.7925C4.22266 7.17 4.39516 6.585 4.69516 6.075ZM15.8477 5.25C16.6727 5.25 17.3477 4.575 17.3477 3.75C17.3477 2.925 16.6727 2.25 15.8477 2.25C15.0227 2.25 14.3477 2.925 14.3477 3.75C14.3477 4.575 15.0227 5.25 15.8477 5.25ZM18.8477 7.8225C18.8477 7.215 18.4877 6.675 17.9327 6.435C17.2952 6.1575 16.5902 6 15.8477 6C15.5552 6 15.2777 6.03 15.0002 6.075C15.3002 6.585 15.4727 7.17 15.4727 7.7925V9H18.0977C18.5102 9 18.8477 8.6625 18.8477 8.25V7.8225ZM9.84766 0C11.0927 0 12.0977 1.005 12.0977 2.25C12.0977 3.495 11.0927 4.5 9.84766 4.5C8.60266 4.5 7.59766 3.495 7.59766 2.25C7.59766 1.005 8.60266 0 9.84766 0Z" fill="#FAA900"/>
</svg>
