<svg width="19" height="9" viewBox="0 0 19 9" fill="none" xmlns="http://www.w3.org/2000/svg">
<path d="M6.88713 6.24931L6.88713 6.24933L6.89103 6.2476C7.7095 5.88383 8.71357 5.6125 9.84766 5.6125C10.9809 5.6125 11.9854 5.88343 12.806 6.24086C13.4111 6.51061 13.7977 7.11961 13.7977 7.785V8.25C13.7977 8.35874 13.7064 8.45 13.5977 8.45H6.09766C5.98891 8.45 5.89766 8.35874 5.89766 8.25V7.7925C5.89766 7.11707 6.28626 6.5108 6.88713 6.24931ZM1.98096 6.93982L1.98217 6.93929C2.55317 6.69074 3.18364 6.55 3.84766 6.55C3.85722 6.55 3.86676 6.55004 3.8763 6.55011C3.74453 6.94159 3.67266 7.35896 3.67266 7.7925V8.45H1.59766C1.48891 8.45 1.39766 8.35874 1.39766 8.25V7.8225C1.39766 7.43706 1.62482 7.09383 1.98096 6.93982ZM17.7131 6.9393L17.7144 6.93982C18.0705 7.09383 18.2977 7.43706 18.2977 7.8225V8.25C18.2977 8.35874 18.2064 8.45 18.0977 8.45H16.0227V7.7925C16.0227 7.35896 15.9508 6.94159 15.819 6.55011C15.8285 6.55004 15.8381 6.55 15.8477 6.55C16.5117 6.55 17.1421 6.69074 17.7131 6.9393ZM4.79766 3.75C4.79766 4.27124 4.3689 4.7 3.84766 4.7C3.32641 4.7 2.89766 4.27124 2.89766 3.75C2.89766 3.22876 3.32641 2.8 3.84766 2.8C4.3689 2.8 4.79766 3.22876 4.79766 3.75ZM16.7977 3.75C16.7977 4.27124 16.3689 4.7 15.8477 4.7C15.3264 4.7 14.8977 4.27124 14.8977 3.75C14.8977 3.22876 15.3264 2.8 15.8477 2.8C16.3689 2.8 16.7977 3.22876 16.7977 3.75ZM9.84766 0.55C10.7889 0.55 11.5477 1.30876 11.5477 2.25C11.5477 3.19124 10.7889 3.95 9.84766 3.95C8.90641 3.95 8.14766 3.19124 8.14766 2.25C8.14766 1.30876 8.90641 0.55 9.84766 0.55Z" stroke="#14142B" stroke-width="1.1"/>
</svg>
