<svg width="19" height="16" viewBox="0 0 19 16" fill="none" xmlns="http://www.w3.org/2000/svg">
<path d="M3.35083 8.52326V10.9425C3.35083 11.571 3.6952 12.1564 4.2462 12.4577L8.55087 14.8081C9.06743 15.0922 9.68731 15.0922 10.2039 14.8081L14.5085 12.4577C15.0595 12.1564 15.4039 11.571 15.4039 10.9425V8.52326L10.2039 11.3643C9.68731 11.6485 9.06743 11.6485 8.55087 11.3643L3.35083 8.52326ZM8.55087 0.206624L1.29319 4.16693C0.699145 4.49408 0.699145 5.35502 1.29319 5.68217L8.55087 9.64247C9.06743 9.92658 9.68731 9.92658 10.2039 9.64247L17.1258 5.86297V10.9511C17.1258 11.4246 17.5132 11.812 17.9867 11.812C18.4602 11.812 18.8477 11.4246 18.8477 10.9511V5.4325C18.8477 5.11395 18.6755 4.82985 18.4 4.67488L10.2039 0.206624C9.68731 -0.0688748 9.06743 -0.0688748 8.55087 0.206624V0.206624Z" fill="#FAA900"/>
</svg>
