<svg width="19" height="16" viewBox="0 0 19 16" fill="none" xmlns="http://www.w3.org/2000/svg">
<path d="M8.81593 14.3262L8.81444 14.3254L4.51009 11.9752C4.137 11.7711 3.90083 11.3716 3.90083 10.9425V9.45049L8.28582 11.8463C8.28601 11.8464 8.2862 11.8465 8.28639 11.8466C8.96767 12.221 9.78698 12.221 10.4683 11.8466C10.4685 11.8465 10.4687 11.8464 10.4689 11.8463L14.8539 9.45049V10.9425C14.8539 11.3716 14.6177 11.7711 14.2446 11.9752L9.9403 14.3253L9.93881 14.3262C9.5873 14.5195 9.16744 14.5195 8.81593 14.3262ZM1.55851 4.6487L8.8118 0.690801C9.16549 0.503057 9.58931 0.503066 9.943 0.690828C9.94368 0.691191 9.94436 0.691554 9.94505 0.691919L18.1328 5.15563C18.2392 5.21655 18.2977 5.3199 18.2977 5.4325V10.9511C18.2977 11.1209 18.1565 11.262 17.9867 11.262C17.817 11.262 17.6758 11.1209 17.6758 10.9511V5.86297V4.93601L16.8622 5.38024L9.94029 9.15974L9.93881 9.16055C9.5873 9.35389 9.16744 9.35389 8.81593 9.16055L8.81432 9.15967L1.55851 5.2004C1.55827 5.20027 1.55804 5.20014 1.5578 5.20001C1.34428 5.08171 1.34428 4.76738 1.5578 4.64909C1.55804 4.64896 1.55827 4.64883 1.55851 4.6487Z" stroke="#14142B" stroke-width="1.1"/>
</svg>
