<svg width="17" height="17" viewBox="0 0 17 17" fill="none" xmlns="http://www.w3.org/2000/svg">
<path d="M8.5 0C3.81306 0 0 3.81306 0 8.5C0 13.1869 3.81306 17 8.5 17C13.1869 17 17 13.1869 17 8.5C17 3.81306 13.1869 0 8.5 0ZM8.5 15.7857C4.48267 15.7857 1.21429 12.5173 1.21429 8.5C1.21429 4.48267 4.48267 1.21429 8.5 1.21429C12.5173 1.21429 15.7857 4.48267 15.7857 8.5C15.7857 12.5173 12.5173 15.7857 8.5 15.7857Z" fill="#E72727"/>
<rect x="4.96484" y="11.5" width="9.24272" height="0.990291" rx="0.495145" transform="rotate(-45 4.96484 11.5)" fill="#E72727"/>
<rect x="5.66602" y="4.96484" width="9.24272" height="0.990291" rx="0.495145" transform="rotate(45 5.66602 4.96484)" fill="#E72727"/>
</svg>
