<svg width="18" height="18" viewBox="0 0 18 18" fill="none" xmlns="http://www.w3.org/2000/svg">
<path d="M9 0C4.03736 0 0 4.03736 0 9C0 13.9626 4.03736 18 9 18C13.9626 18 18 13.9626 18 9C18 4.03736 13.9626 0 9 0ZM9 16.7143C4.74636 16.7143 1.28571 13.2536 1.28571 9C1.28571 4.74636 4.74636 1.28571 9 1.28571C13.2536 1.28571 16.7143 4.74636 16.7143 9C16.7143 13.2536 13.2536 16.7143 9 16.7143Z" fill="#50C285"/>
<path d="M12.7502 5.59169L6.99947 11.1422L5.24818 9.45192C5.00686 9.219 4.61567 9.219 4.37435 9.45192C4.13303 9.68483 4.13303 10.0624 4.37435 10.2953L6.56255 12.4074C6.68318 12.5239 6.84129 12.582 6.99947 12.582C7.15758 12.582 7.31576 12.5238 7.43638 12.4074L13.624 6.43504C13.8653 6.20212 13.8653 5.82454 13.624 5.59162C13.3828 5.35877 12.9914 5.35877 12.7502 5.59169Z" fill="#50C285"/>
<path d="M9 0C4.03736 0 0 4.03736 0 9C0 13.9626 4.03736 18 9 18C13.9626 18 18 13.9626 18 9C18 4.03736 13.9626 0 9 0ZM9 16.7143C4.74636 16.7143 1.28571 13.2536 1.28571 9C1.28571 4.74636 4.74636 1.28571 9 1.28571C13.2536 1.28571 16.7143 4.74636 16.7143 9C16.7143 13.2536 13.2536 16.7143 9 16.7143Z" fill="#50C285"/>
</svg>
