<svg width="21" height="20" viewBox="0 0 21 20" fill="none" xmlns="http://www.w3.org/2000/svg">
<path d="M8.09758 12.1505H7.49758V12.7505V18.3755C7.49758 18.6629 7.25996 18.9005 6.97258 18.9005H3.59758C3.3102 18.9005 3.07258 18.6629 3.07258 18.3755V10.5005V9.90055H2.47258H0.66485L9.99391 1.49769C9.99409 1.49753 9.99428 1.49736 9.99446 1.4972C10.194 1.31919 10.5011 1.31916 10.7006 1.49711C10.7008 1.49731 10.701 1.4975 10.7013 1.49769L20.0303 9.90055H18.2226H17.6226V10.5005V18.3755C17.6226 18.6629 17.385 18.9005 17.0976 18.9005H13.7226C13.4352 18.9005 13.1976 18.6629 13.1976 18.3755V12.7505V12.1505H12.5976H8.09758Z" stroke="#14142B" stroke-width="1.2"/>
</svg>
