<svg width="19" height="17" viewBox="0 0 19 17" fill="none" xmlns="http://www.w3.org/2000/svg">
<path d="M17.0477 9.3H12.2477V9C12.2477 8.17363 11.574 7.5 10.7477 7.5H8.94766C8.12128 7.5 7.44766 8.17363 7.44766 9V9.3H2.64766C1.98003 9.3 1.44766 8.76763 1.44766 8.1V5.4C1.44766 4.74137 1.98903 4.2 2.64766 4.2H6.24766H6.84766V3.6C6.84766 1.94237 8.19003 0.6 9.84766 0.6C11.5053 0.6 12.8477 1.94237 12.8477 3.6V4.2H13.4477H17.0477C17.7063 4.2 18.2477 4.74137 18.2477 5.4V8.1C18.2477 8.75863 17.7063 9.3 17.0477 9.3ZM7.24766 3.6V4.2H7.84766H8.03866H11.6477H12.2477V3.6C12.2477 2.27863 11.169 1.2 9.84766 1.2C9.1954 1.2 8.55857 1.46335 8.08333 1.87544C7.60699 2.28848 7.24766 2.89346 7.24766 3.6ZM10.7477 12.3C11.3609 12.3 11.89 11.929 12.1222 11.4H17.3477V14.4C17.3477 15.0586 16.8063 15.6 16.1477 15.6H3.55666C2.89803 15.6 2.35666 15.0586 2.35666 14.4V11.4H7.57316C7.80531 11.929 8.33443 12.3 8.94766 12.3H10.7477Z" stroke="#14142B" stroke-width="1.2"/>
</svg>
