<svg width="19" height="17" viewBox="0 0 19 17" fill="none" xmlns="http://www.w3.org/2000/svg">
<path d="M10.7477 11.7H8.94766C8.45266 11.7 8.04766 11.295 8.04766 10.8H1.75666V14.4C1.75666 15.39 2.56666 16.2 3.55666 16.2H16.1477C17.1377 16.2 17.9477 15.39 17.9477 14.4V10.8H11.6477C11.6477 11.295 11.2427 11.7 10.7477 11.7ZM17.0477 3.6H13.4477C13.4477 1.611 11.8367 0 9.84766 0C7.85866 0 6.24766 1.611 6.24766 3.6H2.64766C1.65766 3.6 0.847656 4.41 0.847656 5.4V8.1C0.847656 9.099 1.64866 9.9 2.64766 9.9H8.04766V9C8.04766 8.505 8.45266 8.1 8.94766 8.1H10.7477C11.2427 8.1 11.6477 8.505 11.6477 9V9.9H17.0477C18.0377 9.9 18.8477 9.09 18.8477 8.1V5.4C18.8477 4.41 18.0377 3.6 17.0477 3.6ZM7.84766 3.6C7.84766 2.61 8.85766 1.8 9.84766 1.8C10.8377 1.8 11.6477 2.61 11.6477 3.6H8.03866H7.84766Z" fill="#FAA900"/>
</svg>
