<svg width="19" height="15" viewBox="0 0 19 15" fill="none" xmlns="http://www.w3.org/2000/svg">
<path d="M4.02413 9.02941H1.90648C1.60027 9.02941 1.34766 8.7768 1.34766 8.47059V6.35294C1.34766 6.04673 1.60027 5.79412 1.90648 5.79412H4.02413C4.33034 5.79412 4.58295 6.04673 4.58295 6.35294V8.47059C4.58295 8.7768 4.33034 9.02941 4.02413 9.02941ZM4.02413 14.3235H1.90648C1.60027 14.3235 1.34766 14.0709 1.34766 13.7647V11.6471C1.34766 11.3409 1.60027 11.0882 1.90648 11.0882H4.02413C4.33034 11.0882 4.58295 11.3409 4.58295 11.6471V13.7647C4.58295 14.0709 4.33034 14.3235 4.02413 14.3235ZM4.02413 3.7353H1.90648C1.60027 3.7353 1.34766 3.48268 1.34766 3.17647V1.05882C1.34766 0.752613 1.60027 0.5 1.90648 0.5H4.02413C4.33034 0.5 4.58295 0.752613 4.58295 1.05882V3.17647C4.58295 3.48268 4.33034 3.7353 4.02413 3.7353ZM17.7888 9.02941H7.2006C6.89439 9.02941 6.64177 8.7768 6.64177 8.47059V6.35294C6.64177 6.04673 6.89439 5.79412 7.2006 5.79412H17.7888C18.095 5.79412 18.3477 6.04673 18.3477 6.35294V8.47059C18.3477 8.7768 18.095 9.02941 17.7888 9.02941ZM17.7888 14.3235H7.2006C6.89439 14.3235 6.64177 14.0709 6.64177 13.7647V11.6471C6.64177 11.3409 6.89439 11.0882 7.2006 11.0882H17.7888C18.095 11.0882 18.3477 11.3409 18.3477 11.6471V13.7647C18.3477 14.0709 18.095 14.3235 17.7888 14.3235ZM6.64177 3.17647V1.05882C6.64177 0.752613 6.89439 0.5 7.2006 0.5H17.7888C18.095 0.5 18.3477 0.752613 18.3477 1.05882V3.17647C18.3477 3.48268 18.095 3.7353 17.7888 3.7353H7.2006C6.89439 3.7353 6.64177 3.48268 6.64177 3.17647Z" stroke="#14142B"/>
</svg>
