<svg width="19" height="15" viewBox="0 0 19 15" fill="none" xmlns="http://www.w3.org/2000/svg">
<path d="M1.90648 9.52941H4.02413C4.60648 9.52941 5.08295 9.05294 5.08295 8.47059V6.35294C5.08295 5.77059 4.60648 5.29412 4.02413 5.29412H1.90648C1.32413 5.29412 0.847656 5.77059 0.847656 6.35294V8.47059C0.847656 9.05294 1.32413 9.52941 1.90648 9.52941ZM1.90648 14.8235H4.02413C4.60648 14.8235 5.08295 14.3471 5.08295 13.7647V11.6471C5.08295 11.0647 4.60648 10.5882 4.02413 10.5882H1.90648C1.32413 10.5882 0.847656 11.0647 0.847656 11.6471V13.7647C0.847656 14.3471 1.32413 14.8235 1.90648 14.8235ZM1.90648 4.2353H4.02413C4.60648 4.2353 5.08295 3.75882 5.08295 3.17647V1.05882C5.08295 0.476471 4.60648 0 4.02413 0H1.90648C1.32413 0 0.847656 0.476471 0.847656 1.05882V3.17647C0.847656 3.75882 1.32413 4.2353 1.90648 4.2353ZM7.2006 9.52941H17.7888C18.3712 9.52941 18.8477 9.05294 18.8477 8.47059V6.35294C18.8477 5.77059 18.3712 5.29412 17.7888 5.29412H7.2006C6.61824 5.29412 6.14177 5.77059 6.14177 6.35294V8.47059C6.14177 9.05294 6.61824 9.52941 7.2006 9.52941ZM7.2006 14.8235H17.7888C18.3712 14.8235 18.8477 14.3471 18.8477 13.7647V11.6471C18.8477 11.0647 18.3712 10.5882 17.7888 10.5882H7.2006C6.61824 10.5882 6.14177 11.0647 6.14177 11.6471V13.7647C6.14177 14.3471 6.61824 14.8235 7.2006 14.8235ZM6.14177 1.05882V3.17647C6.14177 3.75882 6.61824 4.2353 7.2006 4.2353H17.7888C18.3712 4.2353 18.8477 3.75882 18.8477 3.17647V1.05882C18.8477 0.476471 18.3712 0 17.7888 0H7.2006C6.61824 0 6.14177 0.476471 6.14177 1.05882Z" fill="#FAA900"/>
</svg>
