<?xml version="1.0" encoding="utf-8"?>
<!-- Generator: Adobe Illustrator 24.0.0, SVG Export Plug-In . SVG Version: 6.00 Build 0)  -->
<svg version="1.1" id="bold" xmlns="http://www.w3.org/2000/svg" xmlns:xlink="http://www.w3.org/1999/xlink" x="0px" y="0px"
	 viewBox="0 0 512 512" style="enable-background:new 0 0 512 512;" xml:space="preserve">
<style type="text/css">
	.st0{fill:#FAA900;}
</style>
<path class="st0" d="M474.7,362.7h-5.3v-32c0-29.4-23.9-53.3-53.3-53.3s-53.3,23.9-53.3,53.3v32h-5.3c-20.6,0-37.3,16.7-37.3,37.3
	v74.7c0,20.6,16.7,37.3,37.3,37.3h117.3c20.6,0,37.3-16.7,37.3-37.3V400C512,379.4,495.3,362.7,474.7,362.7z M394.7,330.7
	c0-11.8,9.6-21.3,21.3-21.3c11.8,0,21.3,9.6,21.3,21.3v32h-42.7V330.7z"/>
<path class="st0" d="M288,400c0-28.8,17.6-53.5,42.7-64v-5.3c0-13,3.1-25.1,8.3-36.2c-16.1-10.8-35.5-17.2-56.3-17.2H101.3
	C45.5,277.3,0,322.8,0,378.7v74.7c0,8.8,7.2,16,16,16h272V400z"/>
<circle class="st0" cx="192" cy="128" r="106.7"/>
</svg>
