<svg width="20" height="20" viewBox="0 0 20 20" fill="none" xmlns="http://www.w3.org/2000/svg">
<circle cx="9.75" cy="9.75" r="3" stroke="#14142B" stroke-width="1.2"/>
<path d="M8.07762 2.54984C8.8674 1.34567 10.6326 1.34567 11.4224 2.54983L11.7977 3.12206C12.2036 3.74099 12.9182 4.08512 13.6552 4.0166L14.3366 3.95325C15.7705 3.81995 16.8711 5.20003 16.422 6.56829L16.2086 7.2185C15.9778 7.92177 16.1543 8.69501 16.6674 9.2285L17.1418 9.72174C18.14 10.7597 17.7472 12.4806 16.3975 12.9826L15.7561 13.2212C15.0624 13.4792 14.5679 14.0993 14.4707 14.8331L14.3808 15.5115C14.1917 16.9391 12.6013 17.705 11.3673 16.9627L10.7808 16.61C10.1466 16.2285 9.35344 16.2285 8.71915 16.61L8.13273 16.9627C6.89869 17.705 5.30831 16.9391 5.1192 15.5115L5.02934 14.8331C4.93214 14.0993 4.43764 13.4792 3.7439 13.2212L3.1025 12.9826C1.75278 12.4806 1.35999 10.7597 2.35822 9.72174L2.83259 9.2285C3.34567 8.69501 3.52215 7.92177 3.29136 7.2185L3.07797 6.56829C2.62894 5.20003 3.72952 3.81995 5.1634 3.95325L5.84479 4.0166C6.58178 4.08512 7.29636 3.74099 7.70231 3.12206L8.07762 2.54984Z" stroke="#14142B" stroke-width="1.2"/>
</svg>
