<?xml version="1.0" encoding="iso-8859-1"?>
<!-- Generator: Adobe Illustrator 16.0.0, SVG Export Plug-In . SVG Version: 6.00 Build 0)  -->
<!DOCTYPE svg PUBLIC "-//W3C//DTD SVG 1.1//EN" "http://www.w3.org/Graphics/SVG/1.1/DTD/svg11.dtd">
<svg version="1.1" id="Capa_1" xmlns="http://www.w3.org/2000/svg" xmlns:xlink="http://www.w3.org/1999/xlink" x="0px" y="0px"
	 width="29.254px" height="29.254px" viewBox="0 0 29.254 29.254" style="enable-background:new 0 0 29.254 29.254;"
	 xml:space="preserve">
<g>
	<g>
		<path d="M13.694,7.487c2.065,0,3.743-1.676,3.743-3.743C17.437,1.676,15.759,0,13.694,0c-2.065,0-3.742,1.676-3.742,3.744
			C9.952,5.811,11.628,7.487,13.694,7.487z"/>
		<polygon points="16.572,16.042 16.156,16.918 16.156,16.918 14.032,21.377 14.032,21.377 13.752,21.961 9.974,21.961 
			7.349,11.463 5.473,11.932 8.463,23.895 9.976,23.895 8.036,28.17 9.208,28.703 11.392,23.895 14.593,23.895 16.691,28.695 
			17.873,28.18 16,23.895 17.361,23.895 17.361,21.961 14.997,21.961 15.276,21.377 15.276,21.377 16.102,19.641 17.281,17.167 
			23.781,17.167 23.781,16.042 		"/>
		<polygon points="15.167,8.65 10.911,8.65 10.279,21.377 12.43,21.377 13.317,21.377 15.99,15.766 16.156,15.418 16.156,15.341 
			22.713,15.341 22.713,13.375 17.257,13.375 		"/>
		<polygon points="19.344,18.757 17.238,18.757 15.99,21.377 16.156,21.377 19.344,21.377 19.344,29.254 22.713,29.254 
			22.713,18.757 22.443,18.757 		"/>
	</g>
</g>
<g>
</g>
<g>
</g>
<g>
</g>
<g>
</g>
<g>
</g>
<g>
</g>
<g>
</g>
<g>
</g>
<g>
</g>
<g>
</g>
<g>
</g>
<g>
</g>
<g>
</g>
<g>
</g>
<g>
</g>
</svg>
