<svg width="19" height="18" viewBox="0 0 19 18" fill="none" xmlns="http://www.w3.org/2000/svg">
<path d="M13.7477 4.5C13.7477 6.65488 12.0025 8.4 9.84766 8.4C7.69278 8.4 5.94766 6.65488 5.94766 4.5C5.94766 2.34512 7.69278 0.6 9.84766 0.6C12.0025 0.6 13.7477 2.34512 13.7477 4.5ZM1.44766 15.75C1.44766 15.2222 1.70727 14.7156 2.23844 14.2253C2.77369 13.7313 3.54373 13.2956 4.44437 12.9348C6.24663 12.2128 8.42079 11.85 9.84766 11.85C11.2745 11.85 13.4487 12.2128 15.2509 12.9348C16.1516 13.2956 16.9216 13.7313 17.4569 14.2253C17.988 14.7156 18.2477 15.2222 18.2477 15.75V16.875C18.2477 17.1624 18.01 17.4 17.7227 17.4H1.97266C1.68528 17.4 1.44766 17.1624 1.44766 16.875V15.75Z" stroke="#14142B" stroke-width="1.2"/>
</svg>
